<svg xmlns="http://www.w3.org/2000/svg" xmlns:xlink="http://www.w3.org/1999/xlink" zoomAndPan="magnify" viewBox="15 64 348 97" preserveAspectRatio="none" version="1.0"><defs><clipPath id="394ad61ff5"><path d="M 15 64.371094 L 362.816406 64.371094 L 362.816406 161.121094 L 15 161.121094 Z M 15 64.371094 " clip-rule="nonzero"/></clipPath></defs><g clip-path="url(#394ad61ff5)"><path fill="#512b19" d="M 85.0625 161 C 84.394531 161 83.726562 160.941406 83.058594 160.941406 C 82.753906 160.273438 82.144531 160.515625 81.660156 160.515625 C 78.078125 160.515625 74.492188 160.515625 70.910156 160.515625 C 67.328125 160.515625 63.742188 160.515625 60.160156 160.515625 C 59.675781 160.515625 59.066406 160.273438 58.761719 161 C 56.152344 161.121094 53.539062 161.121094 50.929688 161 C 50.320312 160.515625 49.773438 160.089844 49.167969 159.605469 C 49.046875 158.570312 48.984375 157.539062 50.140625 156.808594 C 48.558594 156.566406 47.164062 156.507812 45.828125 156.386719 C 44.613281 156.261719 43.398438 156.324219 42.242188 156.082031 C 39.691406 155.59375 37.261719 155.898438 34.832031 156.445312 C 34.652344 156.445312 34.46875 156.445312 34.289062 156.445312 C 34.289062 156.261719 34.289062 156.082031 34.347656 155.839844 C 35.136719 155.71875 34.832031 155.109375 34.894531 154.625 C 35.136719 154.378906 35.015625 154.136719 34.710938 154.136719 C 34.164062 154.078125 33.679688 154.136719 33.132812 154.257812 C 32.34375 154.441406 32.828125 153.835938 32.769531 153.652344 C 30.765625 153.105469 28.699219 153.226562 26.695312 153.226562 C 26.632812 153.105469 26.632812 152.984375 26.574219 152.921875 C 27.058594 152.679688 27.667969 152.679688 27.972656 152.074219 C 28.03125 151.828125 28.214844 151.648438 28.03125 151.40625 C 27.789062 151.160156 27.546875 151.222656 27.304688 151.40625 C 26.9375 151.40625 26.574219 151.40625 26.210938 151.40625 C 26.148438 151.34375 26.027344 151.285156 25.964844 151.222656 C 25.964844 151.222656 26.089844 151.222656 26.089844 151.222656 L 26.210938 151.160156 C 26.332031 151.101562 26.390625 150.980469 26.390625 150.859375 C 26.757812 150.675781 27.179688 150.433594 27.242188 149.824219 C 26.574219 149.703125 25.84375 149.582031 25.238281 149.765625 C 24.386719 150.007812 23.78125 149.886719 23.171875 149.15625 C 24.386719 148.792969 25.542969 148.1875 26.632812 147.578125 C 26.878906 147.457031 27.058594 147.273438 26.9375 147.03125 C 26.878906 146.789062 26.632812 146.789062 26.453125 146.789062 C 25.601562 146.789062 24.691406 146.789062 23.839844 146.726562 C 23.839844 146.484375 23.960938 146.304688 24.144531 146.121094 C 24.386719 145.9375 24.996094 145.9375 24.8125 145.390625 C 24.691406 144.96875 24.207031 145.027344 23.839844 144.96875 C 23.660156 144.96875 23.476562 144.90625 23.292969 144.90625 C 22.746094 144.359375 23.355469 143.8125 23.355469 143.207031 C 24.265625 142.660156 24.265625 142.597656 23.902344 141.625 C 24.023438 141.078125 24.328125 140.535156 24.207031 139.925781 C 24.144531 139.441406 23.78125 139.378906 23.355469 139.320312 C 23.113281 138.953125 22.871094 138.589844 22.625 138.285156 C 22.6875 137.921875 22.566406 137.679688 22.199219 137.617188 C 22.078125 137.558594 21.957031 137.4375 21.835938 137.375 C 21.714844 136.644531 22.261719 135.796875 21.410156 135.25 C 21.351562 135.1875 21.351562 135.128906 21.289062 135.007812 C 21.351562 134.582031 20.863281 134.21875 21.410156 133.730469 C 22.078125 133.125 21.777344 132.335938 20.863281 132.089844 C 20.316406 131.96875 20.136719 131.726562 20.136719 131.242188 C 20.136719 130.996094 20.074219 130.753906 20.074219 130.511719 C 20.316406 130.207031 20.621094 130.148438 20.863281 129.90625 C 21.898438 129.054688 22.929688 128.265625 24.144531 127.65625 C 24.628906 127.414062 25.117188 127.109375 25.664062 126.988281 C 26.511719 126.746094 27.546875 126.625 28.214844 126.140625 C 29.976562 124.925781 31.859375 124.074219 33.921875 123.648438 C 34.53125 123.527344 34.894531 123.164062 34.53125 122.496094 C 34.347656 122.128906 34.410156 121.886719 34.894531 121.765625 C 35.199219 121.707031 35.441406 121.585938 35.378906 121.160156 C 33.863281 121.039062 33.863281 121.039062 33.742188 119.457031 C 33.742188 119.335938 33.742188 119.277344 33.679688 119.15625 C 33.679688 119.15625 33.742188 119.09375 33.742188 119.09375 C 34.164062 119.214844 34.53125 119.214844 34.710938 118.730469 C 35.136719 117.941406 35.625 117.273438 36.65625 117.515625 C 37.6875 117.757812 37.929688 116.90625 38.417969 116.359375 C 38.660156 115.996094 39.085938 116.058594 39.390625 116.058594 C 39.8125 115.996094 40.300781 116.179688 40.664062 115.753906 C 41.089844 115.753906 41.273438 115.570312 41.148438 115.144531 C 41.273438 115.144531 41.332031 115.085938 41.453125 115.085938 C 41.878906 115.269531 42.242188 115.207031 42.667969 115.207031 C 43.09375 115.207031 43.214844 114.964844 43.277344 114.601562 C 43.578125 114.660156 43.945312 114.722656 44.1875 114.355469 C 44.734375 114.175781 45.339844 114.054688 45.582031 113.445312 C 45.765625 112.898438 46.128906 112.839844 46.554688 112.839844 C 46.796875 112.839844 47.164062 112.960938 47.164062 112.472656 C 46.859375 112.292969 46.496094 112.351562 46.191406 112.351562 C 45.886719 112.292969 45.523438 112.472656 45.28125 112.171875 C 45.460938 112.050781 45.582031 111.925781 45.707031 111.804688 C 46.554688 111.746094 47.40625 111.746094 48.257812 111.683594 C 48.621094 112.230469 49.226562 112.351562 49.773438 112.230469 C 51.109375 111.925781 52.445312 112.230469 53.78125 112.230469 C 55.96875 112.230469 58.035156 111.625 60.160156 111.199219 C 57.671875 111.503906 55.179688 110.410156 52.691406 111.078125 C 52.445312 111.136719 52.082031 111.078125 51.839844 111.015625 C 50.929688 110.773438 50.015625 110.835938 49.105469 110.894531 C 46.859375 110.894531 44.671875 110.835938 42.425781 110.835938 C 41.941406 109.984375 41.027344 110.042969 40.300781 110.042969 C 38.234375 109.984375 36.171875 109.800781 34.105469 109.5 C 33.4375 109.375 32.707031 109.316406 32.464844 110.289062 C 31.980469 110.226562 31.492188 110.167969 31.007812 110.105469 C 31.007812 109.984375 31.007812 109.863281 31.066406 109.742188 C 31.128906 109.679688 31.128906 109.558594 31.191406 109.5 C 31.433594 109.4375 31.613281 109.316406 31.613281 109.011719 C 31.554688 108.648438 31.25 108.648438 30.945312 108.648438 C 29.003906 108.585938 27.425781 107.738281 26.269531 106.097656 C 25.90625 105.609375 25.480469 105.488281 25.238281 106.21875 C 24.933594 106.21875 24.691406 106.15625 24.386719 106.15625 C 24.386719 105.855469 24.386719 105.488281 24.386719 105.1875 C 24.691406 105.0625 24.996094 105.0625 25.238281 104.820312 C 25.542969 104.820312 25.84375 104.820312 25.964844 104.519531 C 26.089844 104.335938 25.964844 104.03125 25.785156 104.03125 C 24.753906 103.972656 24.8125 102.878906 24.082031 102.511719 C 24.691406 101.96875 25.480469 101.542969 24.628906 100.753906 C 24.570312 100.691406 24.628906 100.570312 24.570312 100.449219 C 24.328125 99.355469 23.71875 98.808594 22.6875 98.6875 C 20.988281 98.503906 19.226562 98.019531 17.523438 97.410156 C 16.007812 96.925781 15.582031 96.257812 15.640625 94.617188 C 15.640625 94.375 15.703125 94.132812 15.519531 93.949219 C 14.671875 92.917969 15.398438 91.824219 15.460938 90.730469 C 15.703125 90.671875 15.945312 90.550781 16.1875 90.488281 C 16.371094 90.488281 16.613281 90.550781 16.734375 90.425781 C 18.375 89.699219 20.136719 89.273438 21.898438 88.910156 C 24.207031 88.421875 26.511719 88 28.882812 87.632812 C 30.703125 87.390625 32.527344 87.207031 34.289062 86.785156 C 38.296875 85.8125 42.363281 84.777344 46.433594 83.867188 C 51.597656 82.714844 56.699219 81.683594 61.921875 80.769531 C 65.199219 80.222656 68.480469 79.675781 71.761719 79.128906 C 74.492188 78.707031 77.289062 78.21875 80.019531 77.734375 C 82.328125 77.371094 84.574219 76.882812 86.882812 76.519531 C 90.648438 75.910156 94.414062 75.183594 98.121094 74.515625 C 101.761719 73.847656 105.46875 73.300781 109.113281 72.691406 C 110.933594 72.390625 112.757812 72.269531 114.578125 71.902344 C 116.277344 71.601562 118.039062 71.476562 119.742188 71.234375 C 121.5625 70.992188 123.382812 70.808594 125.207031 70.566406 C 126.96875 70.324219 128.730469 69.960938 130.492188 69.839844 C 133.101562 69.65625 135.652344 69.292969 138.265625 69.171875 C 139.722656 69.109375 141.179688 69.171875 142.578125 68.867188 C 144.824219 68.441406 147.132812 68.625 149.378906 68.378906 C 152.839844 68.015625 156.363281 68.320312 159.824219 68.078125 C 164.441406 67.773438 169.058594 68.199219 173.613281 67.710938 C 174.402344 67.652344 175.253906 67.652344 176.042969 67.410156 C 176.34375 67.773438 176.710938 67.710938 177.132812 67.710938 C 178.472656 67.710938 179.808594 67.589844 181.203125 67.46875 C 183.996094 67.289062 186.792969 67.226562 189.585938 67.167969 C 193.410156 67.105469 197.238281 66.621094 201.0625 66.800781 C 201.609375 66.800781 201.976562 66.558594 202.339844 66.195312 C 204.648438 66.195312 207.015625 66.4375 209.324219 66.4375 C 222.6875 66.558594 236.046875 66.5 249.410156 66.5 C 252.324219 66.5 255.179688 66.011719 258.09375 66.195312 C 258.214844 66.195312 258.277344 66.195312 258.398438 66.195312 C 260.765625 65.585938 263.195312 65.953125 265.625 65.707031 C 268.054688 65.527344 270.542969 65.34375 273.035156 65.285156 C 274.371094 65.222656 275.765625 65.160156 277.105469 65.039062 C 279.714844 64.738281 282.328125 64.617188 284.878906 64.492188 C 285.304688 64.492188 285.726562 64.492188 286.214844 64.492188 C 292.589844 64.492188 299.027344 64.371094 305.40625 64.796875 C 306.679688 64.917969 308.015625 64.917969 309.292969 65.160156 C 311.660156 65.527344 314.03125 65.527344 316.339844 65.953125 C 317.1875 66.074219 318.097656 65.953125 318.949219 66.253906 C 319.3125 66.375 319.800781 66.4375 320.164062 66.011719 C 320.347656 66.011719 320.527344 66.011719 320.710938 66.011719 C 321.136719 66.679688 321.316406 66.742188 322.167969 66.253906 C 322.351562 66.253906 322.53125 66.253906 322.714844 66.253906 C 322.957031 67.167969 323.6875 66.679688 324.171875 66.800781 C 324.355469 66.800781 324.539062 66.800781 324.78125 66.800781 C 325.328125 67.410156 326.117188 67.105469 326.84375 67.226562 C 328.304688 67.46875 329.761719 67.773438 331.21875 67.710938 C 331.644531 67.710938 332.007812 67.710938 332.066406 67.167969 C 332.3125 67.167969 332.613281 67.226562 332.859375 67.226562 C 333.28125 68.136719 333.707031 68.257812 334.679688 67.53125 C 335.53125 67.589844 336.441406 67.652344 337.292969 67.710938 C 337.472656 67.957031 337.65625 68.015625 337.839844 67.773438 C 338.019531 67.773438 338.203125 67.835938 338.382812 67.835938 C 338.445312 68.078125 338.628906 68.257812 338.871094 68.257812 C 339.722656 68.257812 340.570312 68.378906 341.421875 68.5625 C 341.726562 68.625 341.96875 68.5625 342.210938 68.320312 C 342.394531 68.320312 342.574219 68.378906 342.757812 68.378906 C 342.878906 68.683594 343.0625 68.804688 343.425781 68.867188 C 345.550781 69.414062 347.796875 69.535156 349.558594 71.175781 C 349.621094 71.234375 349.742188 71.175781 349.863281 71.234375 C 350.046875 71.296875 350.167969 71.355469 350.347656 71.417969 C 350.410156 71.964844 350.53125 72.449219 351.261719 72.449219 C 351.746094 72.449219 352.171875 72.632812 352.65625 72.691406 C 353.566406 72.875 353.8125 73.117188 353.871094 74.152344 C 353.871094 74.453125 353.871094 74.695312 353.871094 75 C 353.8125 75.0625 353.75 75.0625 353.628906 75.0625 C 352.71875 75.546875 352.230469 76.277344 352.476562 77.1875 C 352.839844 78.523438 353.265625 79.800781 353.628906 81.074219 C 353.691406 81.316406 353.8125 81.5 353.507812 81.683594 C 352.71875 82.046875 353.023438 82.351562 353.628906 82.59375 C 353.871094 82.714844 354.175781 82.835938 354.417969 82.894531 C 354.417969 83.140625 354.359375 83.382812 354.054688 83.441406 C 353.75 83.503906 353.566406 83.6875 353.507812 83.988281 C 353.203125 84.109375 352.960938 84.171875 352.65625 84.292969 C 352.050781 84.414062 351.015625 83.929688 351.320312 85.265625 C 351.382812 85.445312 351.015625 85.445312 350.835938 85.386719 C 350.59375 85.324219 350.410156 85.144531 350.167969 85.445312 C 350.289062 86.054688 350.835938 86.417969 351.382812 86.480469 C 352.050781 86.601562 352.597656 87.027344 353.203125 87.207031 C 353.507812 87.632812 353.871094 88 354.417969 88.179688 C 355.085938 90.0625 355.085938 90.0625 357.210938 90.0625 C 357.457031 90.0625 357.699219 90.0625 357.941406 90.0625 C 358.730469 90.003906 359.339844 90.0625 359.640625 90.914062 C 359.703125 91.09375 360.066406 91.21875 360.429688 91.398438 C 359.703125 91.703125 359.09375 92.066406 360.1875 92.613281 C 360.308594 92.675781 360.25 92.976562 360.25 93.160156 C 359.824219 93.464844 359.15625 93.464844 358.914062 94.011719 C 358.246094 94.253906 357.941406 94.679688 358.125 95.40625 C 358.183594 95.652344 357.578125 95.894531 357.878906 96.257812 C 358.125 96.5 358.488281 96.378906 358.851562 96.378906 C 358.851562 96.742188 358.667969 96.988281 358.546875 97.289062 C 358.0625 98.445312 358.183594 98.6875 359.519531 99.050781 C 359.398438 99.417969 358.730469 99.660156 359.15625 100.265625 C 359.460938 100.691406 359.761719 101.117188 360.371094 100.996094 C 360.675781 100.933594 360.917969 100.996094 361.160156 100.753906 C 361.523438 100.753906 361.828125 100.753906 362.132812 100.933594 C 362.070312 101.117188 362.011719 101.300781 361.949219 101.480469 C 361.585938 101.480469 361.222656 101.480469 360.855469 101.480469 C 360.429688 101.238281 359.761719 101.117188 359.882812 101.785156 C 360.066406 102.695312 359.882812 103.058594 358.972656 103.058594 C 358.730469 103.058594 358.609375 103.242188 358.609375 103.425781 C 358.609375 103.605469 358.730469 103.789062 358.972656 103.789062 C 360.1875 103.789062 360.675781 104.640625 361.402344 105.488281 C 360.917969 105.550781 360.550781 105.550781 360.25 105.671875 C 359.035156 106.097656 357.941406 106.703125 356.605469 106.824219 C 356.242188 106.886719 356.179688 107.191406 356.300781 107.492188 C 356.363281 107.738281 356.605469 107.859375 356.421875 108.222656 C 355.996094 108.222656 355.511719 108.222656 355.027344 108.222656 C 354.296875 108.222656 353.566406 108.101562 353.445312 109.195312 C 353.445312 109.5 353.082031 109.621094 352.777344 109.679688 C 352.476562 109.742188 352.171875 109.742188 352.171875 110.105469 C 352.171875 110.53125 352.535156 110.46875 352.839844 110.46875 C 353.265625 110.46875 353.507812 110.589844 353.203125 111.078125 C 352.109375 111.078125 351.015625 110.835938 349.984375 111.378906 C 349.800781 111.378906 349.621094 111.441406 349.4375 111.441406 C 349.074219 111.441406 348.648438 111.441406 348.285156 111.441406 C 348.101562 111.441406 347.796875 111.441406 347.796875 111.683594 C 347.796875 112.472656 346.523438 113.203125 347.617188 114.113281 C 347.675781 114.175781 347.617188 114.417969 347.617188 114.539062 C 347.25 114.78125 346.949219 114.964844 346.523438 114.964844 C 346.339844 114.964844 346.28125 115.023438 346.21875 115.207031 C 346.160156 115.328125 346.160156 115.390625 346.097656 115.511719 C 345.550781 115.8125 344.945312 116.058594 345.246094 116.90625 C 345.308594 117.027344 345.246094 117.210938 345.1875 117.273438 C 344.03125 118 344.699219 118.367188 345.492188 118.789062 C 345.734375 118.910156 345.792969 119.277344 346.039062 119.398438 C 346.039062 119.578125 345.976562 119.761719 345.976562 119.945312 C 345.246094 120.671875 345.1875 120.855469 345.914062 121.339844 C 346.21875 121.523438 346.707031 121.644531 346.460938 122.007812 C 346.039062 122.738281 347.070312 123.222656 346.582031 123.890625 C 346.460938 124.011719 346.707031 124.316406 346.886719 124.316406 C 347.675781 124.316406 348.527344 124.742188 349.132812 123.953125 C 349.5 124.136719 349.863281 124.257812 349.984375 124.683594 C 349.679688 124.683594 349.378906 124.683594 349.132812 124.742188 C 348.589844 124.804688 348.042969 124.621094 347.617188 124.984375 C 347.25 125.351562 347.796875 125.714844 347.675781 126.078125 C 347.675781 126.140625 347.675781 126.199219 347.675781 126.199219 C 346.886719 127.050781 347.554688 127.535156 348.101562 128.082031 C 348.589844 128.628906 349.132812 129.238281 349.5 129.90625 C 348.890625 130.027344 348.34375 130.085938 347.738281 130.207031 C 347.25 130.148438 347.007812 130.816406 346.339844 130.574219 C 345.429688 130.328125 345.367188 130.453125 345.125 131.605469 C 344.457031 131.667969 344.335938 132.152344 344.277344 132.699219 C 344.15625 133.609375 344.03125 134.640625 342.636719 134.582031 C 342.273438 134.582031 341.117188 135.554688 340.8125 135.976562 C 339.964844 136.707031 339.050781 137.132812 337.960938 137.191406 C 337.714844 137.191406 337.535156 137.375 337.292969 137.496094 C 336.683594 137.375 336.441406 137.921875 336.078125 138.164062 C 334.921875 138.894531 334.921875 138.894531 335.226562 140.109375 C 334.679688 140.59375 335.226562 141.078125 335.164062 141.566406 C 334.863281 141.746094 334.921875 142.113281 334.921875 142.355469 C 334.679688 142.476562 334.375 142.597656 334.132812 142.71875 C 333.585938 142.71875 333.160156 142.960938 332.3125 143.265625 C 333.40625 143.507812 332.613281 144.359375 333.28125 144.722656 C 333.585938 145.878906 333.585938 145.878906 332.433594 146.484375 C 331.703125 146.726562 330.855469 146.484375 330.308594 147.152344 C 330.125 147.152344 329.941406 147.214844 329.761719 147.214844 C 329.03125 146.972656 328.300781 146.667969 327.695312 147.457031 C 327.210938 147.457031 326.722656 147.519531 326.238281 147.519531 C 324.902344 147.09375 323.503906 147.335938 322.109375 147.394531 C 321.984375 147.394531 321.925781 147.578125 321.863281 147.699219 C 321.5 147.699219 321.074219 147.761719 320.710938 147.761719 C 320.042969 147.457031 319.433594 147.335938 318.949219 148.003906 C 318.765625 148.003906 318.585938 148.0625 318.402344 148.0625 C 317.917969 147.761719 317.492188 147.699219 317.1875 148.308594 C 317.007812 148.308594 316.824219 148.367188 316.640625 148.367188 C 316.15625 148.0625 315.730469 148.003906 315.425781 148.609375 C 315.246094 148.609375 315.0625 148.671875 314.878906 148.671875 C 314.394531 148.367188 313.96875 148.308594 313.664062 148.914062 C 313.484375 148.914062 313.300781 148.976562 313.117188 148.976562 C 312.148438 148.488281 311.234375 149.035156 310.386719 149.21875 C 309.777344 149.339844 308.867188 148.976562 308.441406 149.765625 C 308.078125 149.886719 307.714844 149.886719 307.289062 149.824219 C 305.953125 149.460938 304.617188 149.523438 303.21875 149.824219 C 302.125 149.886719 301.09375 149.886719 300 149.703125 C 298.847656 149.097656 297.691406 149.277344 296.539062 149.582031 C 295.75 149.703125 294.960938 149.582031 294.167969 149.402344 C 293.199219 148.855469 292.226562 148.976562 291.253906 149.277344 C 290.648438 149.402344 290.101562 149.21875 289.492188 149.097656 C 288.765625 148.550781 287.976562 148.671875 287.183594 148.976562 C 286.394531 149.097656 285.605469 148.734375 284.816406 148.792969 C 284.632812 148.550781 284.390625 148.488281 284.089844 148.488281 C 281.476562 148.488281 278.925781 148.488281 276.3125 148.488281 C 275.949219 148.488281 275.644531 148.550781 275.464844 148.855469 C 274.917969 148.976562 274.308594 148.976562 273.761719 148.914062 C 272.792969 148.671875 271.820312 148.488281 270.847656 149.097656 C 270.179688 149.15625 269.511719 149.339844 268.78125 149.21875 C 267.628906 148.914062 266.414062 148.792969 265.320312 149.339844 C 264.472656 149.460938 263.558594 149.582031 262.710938 149.523438 C 261.796875 149.21875 260.949219 149.097656 260.097656 149.644531 C 259.429688 149.765625 258.761719 149.886719 258.03125 149.765625 C 257.851562 149.703125 257.667969 149.582031 257.488281 149.582031 C 255.605469 149.582031 253.660156 149.582031 251.777344 149.582031 C 251.472656 149.582031 251.230469 149.644531 251.046875 149.886719 C 249.652344 149.765625 248.316406 150.191406 246.980469 150.070312 C 246.25 149.824219 245.523438 149.582031 244.914062 150.3125 C 244.609375 150.3125 244.367188 150.371094 244.0625 150.371094 C 243.515625 150.070312 242.972656 149.945312 242.605469 150.554688 C 242.425781 150.554688 242.242188 150.617188 242.058594 150.617188 C 241.511719 150.371094 240.964844 150.191406 240.601562 150.859375 C 240.421875 150.859375 240.238281 150.917969 240.054688 150.917969 C 239.570312 150.617188 239.207031 150.617188 238.839844 151.101562 C 238.539062 151.160156 238.292969 151.160156 237.992188 151.222656 C 237.503906 150.859375 237.140625 150.859375 236.777344 151.40625 C 236.472656 151.40625 236.230469 151.464844 235.925781 151.464844 C 235.378906 151.160156 234.832031 151.039062 234.46875 151.648438 C 234.164062 151.648438 233.921875 151.707031 233.617188 151.707031 C 232.707031 151.40625 231.855469 151.285156 231.007812 151.828125 C 229.546875 151.828125 228.089844 151.828125 226.632812 151.828125 C 224.933594 151.222656 223.171875 151.40625 221.410156 151.707031 C 220.925781 151.769531 220.4375 151.769531 219.953125 151.648438 C 219.34375 150.980469 218.617188 151.222656 217.886719 151.464844 C 217.28125 151.585938 216.734375 151.34375 216.125 151.285156 C 215.945312 151.039062 215.699219 150.980469 215.398438 150.980469 C 212.785156 150.980469 210.234375 150.980469 207.625 150.980469 C 207.257812 150.980469 206.957031 151.039062 206.773438 151.40625 C 206.46875 151.464844 206.226562 151.464844 205.921875 151.527344 C 205.558594 151.160156 205.253906 151.285156 205.011719 151.707031 C 204.828125 151.707031 204.648438 151.769531 204.464844 151.769531 C 203.917969 151.527344 203.371094 151.34375 203.007812 152.011719 C 202.824219 152.011719 202.644531 152.074219 202.460938 152.074219 C 201.914062 151.769531 201.367188 151.648438 201.003906 152.253906 C 200.699219 152.253906 200.457031 152.316406 200.152344 152.316406 C 199.546875 152.011719 198.878906 151.890625 198.390625 152.5 C 198.027344 152.5 197.601562 152.558594 197.238281 152.558594 C 196.449219 152.316406 195.597656 152.074219 194.871094 152.800781 C 194.382812 152.921875 193.898438 152.921875 193.410156 152.863281 C 192.257812 152.4375 191.042969 152.679688 189.890625 152.742188 C 189.765625 152.742188 189.707031 152.921875 189.585938 153.042969 C 188.796875 153.167969 188.066406 153.167969 187.277344 153.105469 C 186.125 152.679688 184.910156 152.921875 183.753906 152.984375 C 183.632812 152.984375 183.574219 153.167969 183.511719 153.289062 C 182.964844 153.410156 182.359375 153.410156 181.8125 153.347656 C 180.898438 153.105469 179.988281 152.800781 179.140625 153.589844 C 178.773438 153.589844 178.347656 153.652344 177.984375 153.652344 C 177.4375 153.347656 176.890625 153.167969 176.527344 153.835938 C 176.222656 153.835938 175.980469 153.894531 175.675781 153.894531 C 175.128906 153.589844 174.582031 153.46875 174.21875 154.136719 C 174.039062 154.136719 173.855469 154.199219 173.671875 154.199219 C 173.1875 153.894531 172.761719 153.835938 172.457031 154.441406 C 172.277344 154.441406 172.09375 154.503906 171.910156 154.503906 C 171.667969 154.257812 171.425781 154.257812 171.121094 154.320312 C 169.238281 154.746094 167.296875 155.109375 165.414062 155.535156 C 164.925781 155.65625 164.320312 155.535156 164.015625 156.140625 C 163.832031 156.203125 163.652344 156.203125 163.46875 156.261719 C 162.679688 155.960938 162.011719 156.203125 161.40625 156.75 C 161.222656 156.75 161.039062 156.808594 160.859375 156.808594 C 160.433594 156.445312 160.191406 156.566406 159.945312 156.992188 C 159.765625 156.992188 159.582031 157.054688 159.398438 157.054688 C 158.914062 156.75 158.488281 156.6875 158.1875 157.296875 C 158.003906 157.296875 157.820312 157.355469 157.640625 157.355469 C 157.152344 156.992188 156.726562 156.933594 156.425781 157.601562 C 156.242188 157.601562 156.058594 157.660156 155.878906 157.660156 C 155.332031 157.355469 154.785156 157.175781 154.421875 157.902344 C 154.117188 157.902344 153.875 157.964844 153.570312 157.964844 C 153.023438 157.601562 152.476562 157.476562 152.113281 158.144531 C 151.808594 158.144531 151.566406 158.207031 151.261719 158.207031 C 150.53125 157.964844 149.804688 157.660156 149.195312 158.449219 C 148.832031 158.449219 148.40625 158.511719 148.042969 158.511719 C 146.949219 158.144531 145.855469 158.269531 144.761719 158.390625 C 144.640625 158.390625 144.582031 158.632812 144.519531 158.691406 C 143.851562 158.691406 143.183594 158.753906 142.515625 158.753906 C 142.335938 158.691406 142.152344 158.570312 141.96875 158.570312 C 138.144531 158.570312 134.316406 158.570312 130.492188 158.570312 C 130.125 158.570312 129.824219 158.632812 129.640625 158.996094 C 127.820312 158.996094 125.9375 159.058594 124.113281 159.058594 C 123.992188 158.996094 123.871094 158.875 123.75 158.875 C 121.378906 158.875 118.953125 158.875 116.582031 158.875 C 116.277344 158.875 116.035156 159.058594 115.976562 159.359375 C 115.609375 159.359375 115.1875 159.421875 114.820312 159.421875 C 114.09375 159.117188 113.363281 158.875 112.757812 159.664062 C 112.574219 159.664062 112.390625 159.664062 112.210938 159.726562 C 111.480469 159.421875 110.753906 159.179688 110.144531 159.96875 C 109.839844 159.96875 109.597656 160.027344 109.292969 160.027344 C 108.625 159.726562 108.019531 159.484375 107.53125 160.273438 C 107.230469 160.273438 106.988281 160.332031 106.683594 160.332031 C 105.652344 159.90625 104.558594 160.152344 103.523438 160.152344 C 103.34375 160.152344 103.28125 160.394531 103.160156 160.574219 C 102.675781 160.574219 102.1875 160.574219 101.703125 160.574219 C 101.460938 160.332031 101.15625 160.332031 100.914062 160.332031 C 98.421875 160.332031 95.992188 160.332031 93.503906 160.332031 C 93.199219 160.332031 92.894531 160.332031 92.714844 160.574219 C 91.742188 160.574219 90.769531 160.574219 89.796875 160.515625 C 89.738281 160.332031 89.617188 160.089844 89.433594 160.089844 C 87.734375 160.820312 86.398438 160.574219 85.0625 161 Z M 101.945312 151.527344 C 101.398438 151.527344 100.730469 151.285156 100.425781 151.953125 C 100.183594 151.953125 99.878906 152.011719 99.636719 152.011719 C 99.578125 151.953125 99.578125 151.890625 99.515625 151.890625 C 97.085938 152.011719 94.777344 152.558594 92.410156 153.042969 C 94.597656 153.042969 96.78125 152.921875 98.910156 152.800781 C 99.152344 152.800781 99.332031 152.621094 99.578125 152.558594 C 101.824219 152.375 104.011719 152.132812 106.257812 152.074219 C 110.507812 151.890625 114.699219 151.160156 118.949219 150.675781 C 121.988281 150.371094 125.023438 149.945312 128.0625 149.644531 C 130.613281 149.339844 133.164062 149.097656 135.714844 148.855469 C 138.386719 148.609375 141.058594 148.125 143.792969 148.1875 C 147.679688 148.246094 151.566406 148.125 155.390625 147.699219 C 158.976562 147.273438 162.621094 146.910156 166.203125 146.425781 C 166.992188 146.304688 167.902344 146.363281 168.9375 146 C 168.144531 145.636719 167.597656 145.695312 167.113281 145.757812 C 164.136719 145.9375 161.222656 146.183594 158.246094 146.242188 C 154.296875 146.363281 150.410156 146.667969 146.464844 146.789062 C 141.605469 146.910156 136.808594 147.335938 131.949219 147.457031 C 131.28125 147.457031 130.671875 147.578125 130.066406 147.699219 C 129.640625 147.335938 129.277344 147.335938 128.910156 147.761719 C 128.121094 147.761719 127.394531 147.699219 126.605469 147.882812 C 126.179688 147.699219 125.753906 147.640625 125.390625 148.0625 C 124.78125 148.0625 124.234375 148.0625 123.6875 148.1875 C 123.324219 148.003906 123.019531 148.003906 122.777344 148.367188 C 122.230469 148.367188 121.625 148.367188 121.078125 148.488281 C 120.710938 148.308594 120.410156 148.308594 120.164062 148.671875 C 119.863281 148.671875 119.621094 148.734375 119.316406 148.734375 C 118.890625 148.671875 118.464844 148.550781 118.101562 148.976562 C 117.738281 148.976562 117.3125 149.035156 116.945312 149.035156 C 116.582031 148.914062 116.277344 148.914062 116.035156 149.277344 C 115.730469 149.277344 115.488281 149.339844 115.1875 149.339844 C 114.761719 149.21875 114.335938 149.15625 114.03125 149.582031 C 113.726562 149.582031 113.484375 149.644531 113.179688 149.644531 C 112.816406 149.523438 112.511719 149.460938 112.269531 149.886719 C 111.964844 149.886719 111.722656 149.945312 111.421875 149.945312 C 110.996094 149.765625 110.628906 149.886719 110.386719 150.3125 C 110.144531 150.3125 109.902344 150.371094 109.597656 150.371094 C 109.171875 150.007812 108.871094 150.191406 108.625 150.617188 C 108.382812 150.617188 108.140625 150.675781 107.835938 150.675781 C 107.410156 150.3125 107.109375 150.492188 106.863281 150.917969 C 106.621094 150.917969 106.320312 150.980469 106.074219 150.980469 C 105.710938 150.617188 105.527344 150.917969 105.40625 151.160156 C 105.042969 151.222656 104.679688 151.222656 104.375 151.285156 C 104.011719 150.917969 103.828125 151.222656 103.707031 151.464844 C 103.464844 151.464844 103.160156 151.527344 102.917969 151.527344 C 102.734375 150.980469 102.371094 151.285156 101.945312 151.527344 Z M 286.273438 146.058594 C 292.226562 146.484375 298.179688 146.851562 304.128906 146.789062 C 307.652344 146.789062 311.054688 145.9375 314.457031 145.269531 C 315.367188 145.390625 316.214844 145.210938 317.1875 144.785156 C 316.09375 144.785156 315.246094 144.664062 314.394531 144.84375 C 311.539062 144.785156 308.6875 144.785156 305.832031 144.90625 C 302.492188 145.027344 299.148438 144.96875 295.808594 144.96875 C 294.839844 144.601562 293.867188 144.601562 292.894531 145.027344 C 292.105469 145.089844 291.375 145.089844 290.585938 145.148438 C 289.859375 145.089844 289.128906 144.84375 288.523438 145.332031 C 287.730469 145.332031 287.003906 145.390625 286.214844 145.390625 C 284.332031 145.269531 282.449219 145.453125 280.566406 145.511719 C 277.589844 145.574219 274.613281 145.878906 271.578125 145.9375 C 269.328125 146 267.023438 145.9375 264.773438 145.9375 C 264.289062 145.9375 263.804688 145.816406 263.378906 146.183594 C 261.253906 146.183594 259.125 146.183594 256.941406 146.183594 C 256.273438 145.816406 255.605469 145.757812 254.9375 146.242188 C 252.628906 146.304688 250.257812 146.425781 247.949219 146.425781 C 244.488281 146.425781 241.089844 146.546875 237.6875 147.03125 C 233.011719 147.699219 228.273438 148.1875 223.355469 148.976562 C 224.265625 149.097656 224.871094 149.277344 225.601562 149.277344 C 229.851562 149.460938 234.105469 149.035156 238.355469 148.367188 C 242.425781 147.761719 246.492188 147.214844 250.625 147.273438 C 254.8125 147.335938 258.945312 147.152344 263.136719 146.726562 C 264.957031 146.726562 266.71875 146.851562 268.539062 146.667969 C 270.847656 146.425781 273.15625 146.363281 275.464844 146.242188 C 278.5 146.058594 281.597656 146.183594 284.632812 146.183594 C 285.242188 146.183594 285.726562 146.242188 286.273438 146.058594 Z M 176.40625 149.402344 C 186.792969 149.886719 197.175781 149.644531 207.441406 147.335938 C 199.546875 147.457031 191.710938 147.152344 183.875 147.640625 C 181.265625 147.820312 178.773438 148.488281 176.40625 149.402344 Z M 132.128906 153.894531 C 138.8125 154.257812 145.492188 153.53125 152.113281 152.621094 C 145.429688 152.375 138.691406 152.011719 132.128906 153.894531 Z M 103.402344 156.203125 C 103.097656 156.203125 102.855469 156.140625 102.554688 156.140625 C 96.78125 156.140625 91.011719 156.140625 85.242188 156.140625 C 84.394531 156.140625 83.542969 156.140625 82.691406 156.628906 C 88.097656 156.75 93.382812 156.6875 98.664062 156.6875 C 100.246094 156.6875 101.824219 156.324219 103.402344 156.203125 Z M 103.402344 156.203125 " fill-opacity="1" fill-rule="nonzero"/></g></svg>