<svg xmlns="http://www.w3.org/2000/svg" xmlns:xlink="http://www.w3.org/1999/xlink" width="500" zoomAndPan="magnify" viewBox="0 0 375 149.999998" height="200" preserveAspectRatio="xMidYMid meet" version="1.0"><defs><clipPath id="d1b0a6a59e"><path d="M 10 25.585938 L 365 25.585938 L 365 124.585938 L 10 124.585938 Z M 10 25.585938 " clip-rule="nonzero"/></clipPath></defs><g clip-path="url(#d1b0a6a59e)"><path fill="#512b19" d="M 81.941406 124.285156 C 81.257812 124.285156 80.574219 124.222656 79.894531 124.222656 C 79.582031 123.542969 78.960938 123.789062 78.464844 123.789062 C 74.804688 123.789062 71.144531 123.789062 67.484375 123.789062 C 63.824219 123.789062 60.164062 123.789062 56.503906 123.789062 C 56.007812 123.789062 55.390625 123.542969 55.078125 124.285156 C 52.410156 124.410156 49.742188 124.410156 47.074219 124.285156 C 46.457031 123.789062 45.898438 123.355469 45.277344 122.859375 C 45.152344 121.804688 45.089844 120.75 46.269531 120.003906 C 44.65625 119.757812 43.230469 119.695312 41.863281 119.570312 C 40.625 119.445312 39.382812 119.507812 38.203125 119.261719 C 35.597656 118.765625 33.117188 119.074219 30.636719 119.632812 C 30.449219 119.632812 30.265625 119.632812 30.078125 119.632812 C 30.078125 119.445312 30.078125 119.261719 30.140625 119.011719 C 30.945312 118.886719 30.636719 118.269531 30.699219 117.773438 C 30.945312 117.523438 30.820312 117.273438 30.511719 117.273438 C 29.953125 117.214844 29.457031 117.273438 28.898438 117.398438 C 28.09375 117.585938 28.589844 116.964844 28.527344 116.777344 C 26.480469 116.222656 24.371094 116.34375 22.324219 116.34375 C 22.261719 116.222656 22.261719 116.097656 22.199219 116.035156 C 22.695312 115.785156 23.316406 115.785156 23.625 115.167969 C 23.6875 114.917969 23.875 114.730469 23.6875 114.484375 C 23.441406 114.234375 23.191406 114.296875 22.945312 114.484375 C 22.570312 114.484375 22.199219 114.484375 21.828125 114.484375 C 21.765625 114.421875 21.640625 114.359375 21.578125 114.296875 C 21.578125 114.296875 21.703125 114.296875 21.703125 114.296875 L 21.828125 114.234375 C 21.949219 114.171875 22.011719 114.050781 22.011719 113.925781 C 22.386719 113.738281 22.820312 113.492188 22.882812 112.871094 C 22.199219 112.746094 21.453125 112.621094 20.835938 112.808594 C 19.964844 113.058594 19.34375 112.933594 18.726562 112.1875 C 19.964844 111.816406 21.144531 111.195312 22.261719 110.574219 C 22.507812 110.453125 22.695312 110.265625 22.570312 110.015625 C 22.507812 109.769531 22.261719 109.769531 22.074219 109.769531 C 21.207031 109.769531 20.277344 109.769531 19.40625 109.707031 C 19.40625 109.457031 19.53125 109.273438 19.71875 109.085938 C 19.964844 108.902344 20.585938 108.902344 20.398438 108.34375 C 20.277344 107.90625 19.78125 107.96875 19.40625 107.90625 C 19.222656 107.90625 19.035156 107.847656 18.847656 107.847656 C 18.289062 107.289062 18.910156 106.730469 18.910156 106.109375 C 19.839844 105.550781 19.839844 105.488281 19.46875 104.496094 C 19.59375 103.9375 19.902344 103.378906 19.78125 102.757812 C 19.71875 102.261719 19.34375 102.199219 18.910156 102.136719 C 18.664062 101.765625 18.414062 101.394531 18.167969 101.082031 C 18.230469 100.710938 18.105469 100.464844 17.734375 100.402344 C 17.609375 100.339844 17.484375 100.214844 17.359375 100.152344 C 17.234375 99.410156 17.792969 98.539062 16.925781 97.980469 C 16.863281 97.921875 16.863281 97.859375 16.800781 97.734375 C 16.863281 97.300781 16.367188 96.925781 16.925781 96.429688 C 17.609375 95.8125 17.296875 95.003906 16.367188 94.757812 C 15.808594 94.632812 15.625 94.382812 15.625 93.886719 C 15.625 93.640625 15.5625 93.390625 15.5625 93.144531 C 15.808594 92.832031 16.121094 92.769531 16.367188 92.523438 C 17.421875 91.652344 18.476562 90.847656 19.71875 90.226562 C 20.214844 89.980469 20.710938 89.667969 21.269531 89.546875 C 22.136719 89.296875 23.191406 89.171875 23.875 88.675781 C 25.671875 87.4375 27.597656 86.566406 29.707031 86.132812 C 30.324219 86.007812 30.699219 85.636719 30.324219 84.953125 C 30.140625 84.582031 30.203125 84.332031 30.699219 84.210938 C 31.007812 84.148438 31.257812 84.023438 31.195312 83.589844 C 29.644531 83.464844 29.644531 83.464844 29.519531 81.851562 C 29.519531 81.726562 29.519531 81.667969 29.457031 81.542969 C 29.457031 81.542969 29.519531 81.480469 29.519531 81.480469 C 29.953125 81.605469 30.324219 81.605469 30.511719 81.109375 C 30.945312 80.300781 31.441406 79.621094 32.496094 79.867188 C 33.550781 80.117188 33.800781 79.246094 34.296875 78.6875 C 34.542969 78.316406 34.980469 78.378906 35.289062 78.378906 C 35.722656 78.316406 36.21875 78.503906 36.589844 78.066406 C 37.027344 78.066406 37.210938 77.882812 37.089844 77.449219 C 37.210938 77.449219 37.273438 77.386719 37.398438 77.386719 C 37.832031 77.570312 38.203125 77.511719 38.640625 77.511719 C 39.074219 77.511719 39.195312 77.261719 39.257812 76.890625 C 39.570312 76.953125 39.941406 77.011719 40.191406 76.640625 C 40.75 76.457031 41.367188 76.332031 41.617188 75.710938 C 41.800781 75.152344 42.175781 75.089844 42.609375 75.089844 C 42.855469 75.089844 43.230469 75.214844 43.230469 74.71875 C 42.917969 74.53125 42.546875 74.59375 42.238281 74.59375 C 41.925781 74.53125 41.554688 74.71875 41.304688 74.40625 C 41.492188 74.285156 41.617188 74.160156 41.742188 74.035156 C 42.609375 73.972656 43.476562 73.972656 44.347656 73.910156 C 44.71875 74.46875 45.339844 74.59375 45.898438 74.46875 C 47.261719 74.160156 48.625 74.46875 49.992188 74.46875 C 52.226562 74.46875 54.335938 73.851562 56.503906 73.414062 C 53.960938 73.726562 51.417969 72.609375 48.875 73.292969 C 48.625 73.351562 48.253906 73.292969 48.007812 73.230469 C 47.074219 72.980469 46.144531 73.042969 45.214844 73.105469 C 42.917969 73.105469 40.6875 73.042969 38.390625 73.042969 C 37.894531 72.175781 36.964844 72.238281 36.21875 72.238281 C 34.109375 72.175781 32 71.988281 29.890625 71.679688 C 29.210938 71.554688 28.464844 71.492188 28.214844 72.484375 C 27.71875 72.421875 27.222656 72.359375 26.726562 72.300781 C 26.726562 72.175781 26.726562 72.050781 26.789062 71.925781 C 26.851562 71.863281 26.851562 71.742188 26.914062 71.679688 C 27.160156 71.617188 27.347656 71.492188 27.347656 71.183594 C 27.285156 70.808594 26.976562 70.808594 26.664062 70.808594 C 24.679688 70.746094 23.066406 69.878906 21.890625 68.203125 C 21.515625 67.707031 21.082031 67.585938 20.835938 68.328125 C 20.523438 68.328125 20.277344 68.265625 19.964844 68.265625 C 19.964844 67.957031 19.964844 67.585938 19.964844 67.273438 C 20.277344 67.148438 20.585938 67.148438 20.835938 66.902344 C 21.144531 66.902344 21.453125 66.902344 21.578125 66.589844 C 21.703125 66.40625 21.578125 66.09375 21.394531 66.09375 C 20.339844 66.03125 20.398438 64.917969 19.65625 64.542969 C 20.277344 63.984375 21.082031 63.550781 20.214844 62.746094 C 20.152344 62.683594 20.214844 62.558594 20.152344 62.433594 C 19.902344 61.320312 19.285156 60.761719 18.230469 60.636719 C 16.492188 60.449219 14.691406 59.953125 12.957031 59.332031 C 11.40625 58.835938 10.96875 58.15625 11.03125 56.480469 C 11.03125 56.230469 11.09375 55.984375 10.910156 55.796875 C 10.039062 54.742188 10.785156 53.625 10.847656 52.507812 C 11.09375 52.445312 11.34375 52.324219 11.589844 52.261719 C 11.777344 52.261719 12.023438 52.324219 12.148438 52.199219 C 13.824219 51.453125 15.625 51.019531 17.421875 50.648438 C 19.78125 50.152344 22.136719 49.71875 24.554688 49.34375 C 26.417969 49.097656 28.277344 48.910156 30.078125 48.476562 C 34.171875 47.484375 38.328125 46.429688 42.484375 45.5 C 47.757812 44.320312 52.96875 43.265625 58.304688 42.335938 C 61.65625 41.777344 65.003906 41.21875 68.355469 40.660156 C 71.144531 40.226562 74 39.730469 76.792969 39.234375 C 79.148438 38.859375 81.445312 38.363281 83.800781 37.992188 C 87.648438 37.371094 91.492188 36.628906 95.277344 35.945312 C 99 35.261719 102.785156 34.703125 106.507812 34.085938 C 108.367188 33.773438 110.230469 33.648438 112.089844 33.277344 C 113.828125 32.96875 115.625 32.84375 117.363281 32.59375 C 119.222656 32.347656 121.085938 32.160156 122.945312 31.914062 C 124.746094 31.664062 126.542969 31.292969 128.34375 31.167969 C 131.011719 30.984375 133.617188 30.609375 136.285156 30.484375 C 137.773438 30.425781 139.261719 30.484375 140.6875 30.175781 C 142.984375 29.742188 145.339844 29.929688 147.636719 29.679688 C 151.171875 29.308594 154.769531 29.617188 158.308594 29.371094 C 163.023438 29.058594 167.738281 29.492188 172.390625 28.996094 C 173.195312 28.933594 174.066406 28.933594 174.871094 28.6875 C 175.179688 29.058594 175.554688 28.996094 175.988281 28.996094 C 177.351562 28.996094 178.71875 28.875 180.144531 28.75 C 182.996094 28.5625 185.851562 28.5 188.707031 28.4375 C 192.613281 28.378906 196.523438 27.878906 200.429688 28.066406 C 200.988281 28.066406 201.359375 27.820312 201.734375 27.445312 C 204.089844 27.445312 206.507812 27.695312 208.867188 27.695312 C 222.515625 27.820312 236.164062 27.757812 249.8125 27.757812 C 252.789062 27.757812 255.703125 27.261719 258.683594 27.445312 C 258.804688 27.445312 258.867188 27.445312 258.992188 27.445312 C 261.410156 26.824219 263.894531 27.199219 266.375 26.949219 C 268.855469 26.765625 271.398438 26.578125 273.945312 26.515625 C 275.308594 26.453125 276.734375 26.390625 278.101562 26.269531 C 280.765625 25.957031 283.433594 25.832031 286.039062 25.710938 C 286.476562 25.710938 286.910156 25.710938 287.40625 25.710938 C 293.917969 25.710938 300.496094 25.585938 307.007812 26.019531 C 308.3125 26.144531 309.675781 26.144531 310.980469 26.390625 C 313.398438 26.765625 315.816406 26.765625 318.175781 27.199219 C 319.042969 27.324219 319.972656 27.199219 320.84375 27.507812 C 321.214844 27.632812 321.710938 27.695312 322.082031 27.261719 C 322.269531 27.261719 322.457031 27.261719 322.640625 27.261719 C 323.078125 27.941406 323.261719 28.003906 324.132812 27.507812 C 324.316406 27.507812 324.503906 27.507812 324.6875 27.507812 C 324.9375 28.4375 325.683594 27.941406 326.179688 28.066406 C 326.363281 28.066406 326.550781 28.066406 326.796875 28.066406 C 327.355469 28.6875 328.164062 28.378906 328.90625 28.5 C 330.398438 28.75 331.886719 29.058594 333.375 28.996094 C 333.808594 28.996094 334.179688 28.996094 334.242188 28.4375 C 334.492188 28.4375 334.800781 28.5 335.050781 28.5 C 335.484375 29.429688 335.917969 29.554688 336.910156 28.8125 C 337.777344 28.875 338.710938 28.933594 339.578125 28.996094 C 339.765625 29.246094 339.949219 29.308594 340.136719 29.058594 C 340.324219 29.058594 340.507812 29.121094 340.695312 29.121094 C 340.757812 29.371094 340.941406 29.554688 341.191406 29.554688 C 342.058594 29.554688 342.929688 29.679688 343.796875 29.867188 C 344.105469 29.929688 344.355469 29.867188 344.601562 29.617188 C 344.789062 29.617188 344.976562 29.679688 345.160156 29.679688 C 345.285156 29.988281 345.472656 30.113281 345.84375 30.175781 C 348.015625 30.734375 350.308594 30.859375 352.109375 32.535156 C 352.171875 32.59375 352.296875 32.535156 352.417969 32.59375 C 352.605469 32.65625 352.730469 32.71875 352.914062 32.78125 C 352.976562 33.339844 353.101562 33.835938 353.847656 33.835938 C 354.34375 33.835938 354.777344 34.023438 355.273438 34.085938 C 356.203125 34.269531 356.453125 34.519531 356.515625 35.574219 C 356.515625 35.882812 356.515625 36.132812 356.515625 36.441406 C 356.453125 36.503906 356.390625 36.503906 356.265625 36.503906 C 355.335938 37 354.839844 37.746094 355.085938 38.675781 C 355.460938 40.039062 355.894531 41.34375 356.265625 42.644531 C 356.328125 42.894531 356.453125 43.078125 356.140625 43.265625 C 355.335938 43.636719 355.644531 43.949219 356.265625 44.195312 C 356.515625 44.320312 356.824219 44.445312 357.074219 44.507812 C 357.074219 44.753906 357.011719 45.003906 356.699219 45.066406 C 356.390625 45.125 356.203125 45.3125 356.140625 45.625 C 355.832031 45.746094 355.582031 45.808594 355.273438 45.933594 C 354.652344 46.058594 353.597656 45.5625 353.910156 46.925781 C 353.96875 47.113281 353.597656 47.113281 353.414062 47.050781 C 353.164062 46.988281 352.976562 46.800781 352.730469 47.113281 C 352.855469 47.730469 353.414062 48.105469 353.96875 48.167969 C 354.652344 48.289062 355.210938 48.726562 355.832031 48.910156 C 356.140625 49.34375 356.515625 49.71875 357.074219 49.902344 C 357.753906 51.828125 357.753906 51.828125 359.925781 51.828125 C 360.175781 51.828125 360.421875 51.828125 360.671875 51.828125 C 361.476562 51.765625 362.097656 51.828125 362.40625 52.695312 C 362.46875 52.882812 362.839844 53.003906 363.214844 53.191406 C 362.46875 53.5 361.847656 53.875 362.964844 54.433594 C 363.089844 54.496094 363.027344 54.804688 363.027344 54.992188 C 362.59375 55.300781 361.910156 55.300781 361.664062 55.859375 C 360.980469 56.105469 360.671875 56.542969 360.855469 57.285156 C 360.917969 57.535156 360.296875 57.78125 360.609375 58.15625 C 360.855469 58.402344 361.230469 58.277344 361.601562 58.277344 C 361.601562 58.652344 361.414062 58.898438 361.289062 59.210938 C 360.792969 60.386719 360.917969 60.636719 362.285156 61.007812 C 362.160156 61.378906 361.476562 61.628906 361.910156 62.25 C 362.222656 62.683594 362.53125 63.117188 363.152344 62.992188 C 363.460938 62.929688 363.710938 62.992188 363.957031 62.746094 C 364.332031 62.746094 364.640625 62.746094 364.949219 62.929688 C 364.890625 63.117188 364.828125 63.304688 364.765625 63.488281 C 364.394531 63.488281 364.019531 63.488281 363.648438 63.488281 C 363.214844 63.242188 362.53125 63.117188 362.65625 63.800781 C 362.839844 64.730469 362.65625 65.101562 361.726562 65.101562 C 361.476562 65.101562 361.351562 65.289062 361.351562 65.476562 C 361.351562 65.660156 361.476562 65.847656 361.726562 65.847656 C 362.964844 65.847656 363.460938 66.714844 364.207031 67.585938 C 363.710938 67.644531 363.339844 67.644531 363.027344 67.769531 C 361.785156 68.203125 360.671875 68.824219 359.304688 68.949219 C 358.933594 69.011719 358.871094 69.320312 358.996094 69.632812 C 359.058594 69.878906 359.304688 70.003906 359.121094 70.375 C 358.683594 70.375 358.1875 70.375 357.691406 70.375 C 356.949219 70.375 356.203125 70.25 356.078125 71.367188 C 356.078125 71.679688 355.707031 71.800781 355.398438 71.863281 C 355.085938 71.925781 354.777344 71.925781 354.777344 72.300781 C 354.777344 72.734375 355.148438 72.671875 355.460938 72.671875 C 355.894531 72.671875 356.140625 72.796875 355.832031 73.292969 C 354.714844 73.292969 353.597656 73.042969 352.542969 73.601562 C 352.359375 73.601562 352.171875 73.664062 351.984375 73.664062 C 351.613281 73.664062 351.179688 73.664062 350.804688 73.664062 C 350.621094 73.664062 350.308594 73.664062 350.308594 73.910156 C 350.308594 74.71875 349.007812 75.460938 350.125 76.394531 C 350.1875 76.457031 350.125 76.703125 350.125 76.828125 C 349.753906 77.074219 349.441406 77.261719 349.007812 77.261719 C 348.820312 77.261719 348.757812 77.324219 348.699219 77.511719 C 348.636719 77.632812 348.636719 77.695312 348.574219 77.820312 C 348.015625 78.128906 347.394531 78.378906 347.703125 79.246094 C 347.765625 79.371094 347.703125 79.558594 347.644531 79.621094 C 346.464844 80.363281 347.144531 80.734375 347.953125 81.171875 C 348.199219 81.292969 348.261719 81.667969 348.511719 81.789062 C 348.511719 81.976562 348.449219 82.164062 348.449219 82.347656 C 347.703125 83.09375 347.644531 83.28125 348.386719 83.777344 C 348.699219 83.960938 349.195312 84.085938 348.945312 84.457031 C 348.511719 85.203125 349.566406 85.699219 349.070312 86.382812 C 348.945312 86.503906 349.195312 86.816406 349.378906 86.816406 C 350.1875 86.816406 351.054688 87.25 351.675781 86.441406 C 352.046875 86.628906 352.417969 86.753906 352.542969 87.1875 C 352.234375 87.1875 351.921875 87.1875 351.675781 87.25 C 351.117188 87.3125 350.558594 87.125 350.125 87.496094 C 349.753906 87.871094 350.308594 88.242188 350.1875 88.613281 C 350.1875 88.675781 350.1875 88.738281 350.1875 88.738281 C 349.378906 89.605469 350.0625 90.101562 350.621094 90.660156 C 351.117188 91.21875 351.675781 91.839844 352.046875 92.523438 C 351.425781 92.648438 350.867188 92.707031 350.25 92.832031 C 349.753906 92.769531 349.503906 93.453125 348.820312 93.207031 C 347.890625 92.957031 347.828125 93.082031 347.582031 94.261719 C 346.898438 94.320312 346.773438 94.816406 346.710938 95.375 C 346.589844 96.308594 346.464844 97.363281 345.039062 97.300781 C 344.664062 97.300781 343.488281 98.292969 343.175781 98.726562 C 342.308594 99.472656 341.378906 99.90625 340.261719 99.96875 C 340.011719 99.96875 339.824219 100.152344 339.578125 100.277344 C 338.957031 100.152344 338.710938 100.710938 338.335938 100.960938 C 337.160156 101.703125 337.160156 101.703125 337.46875 102.945312 C 336.910156 103.441406 337.46875 103.9375 337.40625 104.433594 C 337.097656 104.621094 337.160156 104.992188 337.160156 105.242188 C 336.910156 105.363281 336.601562 105.488281 336.351562 105.613281 C 335.792969 105.613281 335.359375 105.859375 334.492188 106.171875 C 335.609375 106.417969 334.800781 107.289062 335.484375 107.660156 C 335.792969 108.839844 335.792969 108.839844 334.613281 109.457031 C 333.871094 109.707031 333.003906 109.457031 332.445312 110.140625 C 332.257812 110.140625 332.070312 110.203125 331.886719 110.203125 C 331.140625 109.953125 330.398438 109.644531 329.777344 110.453125 C 329.28125 110.453125 328.785156 110.511719 328.289062 110.511719 C 326.921875 110.078125 325.496094 110.328125 324.070312 110.390625 C 323.945312 110.390625 323.882812 110.574219 323.820312 110.699219 C 323.449219 110.699219 323.015625 110.761719 322.640625 110.761719 C 321.960938 110.453125 321.339844 110.328125 320.84375 111.007812 C 320.65625 111.007812 320.472656 111.070312 320.285156 111.070312 C 319.789062 110.761719 319.355469 110.699219 319.042969 111.320312 C 318.859375 111.320312 318.671875 111.382812 318.484375 111.382812 C 317.988281 111.070312 317.554688 111.007812 317.246094 111.628906 C 317.058594 111.628906 316.871094 111.691406 316.6875 111.691406 C 316.191406 111.382812 315.757812 111.320312 315.445312 111.941406 C 315.257812 111.941406 315.074219 112.003906 314.886719 112.003906 C 313.894531 111.507812 312.964844 112.0625 312.097656 112.25 C 311.476562 112.375 310.542969 112.003906 310.109375 112.808594 C 309.738281 112.933594 309.367188 112.933594 308.933594 112.871094 C 307.566406 112.5 306.203125 112.5625 304.777344 112.871094 C 303.660156 112.933594 302.605469 112.933594 301.488281 112.746094 C 300.308594 112.125 299.128906 112.3125 297.953125 112.621094 C 297.144531 112.746094 296.339844 112.621094 295.53125 112.4375 C 294.539062 111.878906 293.546875 112.003906 292.554688 112.3125 C 291.933594 112.4375 291.375 112.25 290.753906 112.125 C 290.011719 111.566406 289.203125 111.691406 288.398438 112.003906 C 287.589844 112.125 286.785156 111.753906 285.976562 111.816406 C 285.792969 111.566406 285.542969 111.507812 285.234375 111.507812 C 282.566406 111.507812 279.960938 111.507812 277.292969 111.507812 C 276.921875 111.507812 276.609375 111.566406 276.425781 111.878906 C 275.867188 112.003906 275.246094 112.003906 274.6875 111.941406 C 273.695312 111.691406 272.703125 111.507812 271.710938 112.125 C 271.027344 112.1875 270.34375 112.375 269.601562 112.25 C 268.421875 111.941406 267.179688 111.816406 266.066406 112.375 C 265.195312 112.5 264.265625 112.621094 263.398438 112.5625 C 262.464844 112.25 261.597656 112.125 260.730469 112.683594 C 260.046875 112.808594 259.363281 112.933594 258.621094 112.808594 C 258.433594 112.746094 258.25 112.621094 258.0625 112.621094 C 256.140625 112.621094 254.152344 112.621094 252.230469 112.621094 C 251.921875 112.621094 251.671875 112.683594 251.484375 112.933594 C 250.058594 112.808594 248.695312 113.242188 247.328125 113.117188 C 246.585938 112.871094 245.839844 112.621094 245.21875 113.367188 C 244.910156 113.367188 244.664062 113.429688 244.351562 113.429688 C 243.792969 113.117188 243.234375 112.996094 242.863281 113.613281 C 242.675781 113.613281 242.492188 113.675781 242.304688 113.675781 C 241.746094 113.429688 241.1875 113.242188 240.816406 113.925781 C 240.628906 113.925781 240.445312 113.988281 240.257812 113.988281 C 239.761719 113.675781 239.390625 113.675781 239.015625 114.171875 C 238.707031 114.234375 238.457031 114.234375 238.148438 114.296875 C 237.652344 113.925781 237.28125 113.925781 236.90625 114.484375 C 236.597656 114.484375 236.347656 114.546875 236.039062 114.546875 C 235.480469 114.234375 234.921875 114.113281 234.550781 114.730469 C 234.238281 114.730469 233.992188 114.792969 233.683594 114.792969 C 232.75 114.484375 231.882812 114.359375 231.015625 114.917969 C 229.523438 114.917969 228.035156 114.917969 226.546875 114.917969 C 224.808594 114.296875 223.011719 114.484375 221.210938 114.792969 C 220.714844 114.855469 220.21875 114.855469 219.722656 114.730469 C 219.101562 114.050781 218.359375 114.296875 217.613281 114.546875 C 216.992188 114.667969 216.433594 114.421875 215.816406 114.359375 C 215.628906 114.113281 215.382812 114.050781 215.070312 114.050781 C 212.402344 114.050781 209.796875 114.050781 207.128906 114.050781 C 206.757812 114.050781 206.449219 114.113281 206.261719 114.484375 C 205.953125 114.546875 205.703125 114.546875 205.394531 114.609375 C 205.019531 114.234375 204.710938 114.359375 204.460938 114.792969 C 204.277344 114.792969 204.089844 114.855469 203.902344 114.855469 C 203.347656 114.609375 202.789062 114.421875 202.414062 115.105469 C 202.230469 115.105469 202.042969 115.167969 201.855469 115.167969 C 201.296875 114.855469 200.742188 114.730469 200.367188 115.351562 C 200.058594 115.351562 199.808594 115.414062 199.5 115.414062 C 198.878906 115.105469 198.195312 114.980469 197.699219 115.601562 C 197.328125 115.601562 196.894531 115.664062 196.523438 115.664062 C 195.714844 115.414062 194.847656 115.167969 194.101562 115.910156 C 193.605469 116.035156 193.109375 116.035156 192.613281 115.972656 C 191.433594 115.539062 190.195312 115.785156 189.015625 115.847656 C 188.890625 115.847656 188.828125 116.035156 188.707031 116.160156 C 187.898438 116.28125 187.15625 116.28125 186.347656 116.222656 C 185.167969 115.785156 183.929688 116.035156 182.75 116.097656 C 182.625 116.097656 182.5625 116.28125 182.5 116.40625 C 181.941406 116.53125 181.324219 116.53125 180.765625 116.46875 C 179.835938 116.222656 178.902344 115.910156 178.035156 116.71875 C 177.664062 116.71875 177.230469 116.777344 176.855469 116.777344 C 176.296875 116.46875 175.738281 116.28125 175.367188 116.964844 C 175.058594 116.964844 174.808594 117.027344 174.5 117.027344 C 173.941406 116.71875 173.382812 116.59375 173.011719 117.273438 C 172.824219 117.273438 172.636719 117.335938 172.453125 117.335938 C 171.957031 117.027344 171.519531 116.964844 171.210938 117.585938 C 171.023438 117.585938 170.839844 117.648438 170.652344 117.648438 C 170.40625 117.398438 170.15625 117.398438 169.847656 117.460938 C 167.921875 117.894531 165.9375 118.269531 164.015625 118.703125 C 163.519531 118.828125 162.898438 118.703125 162.589844 119.324219 C 162.402344 119.382812 162.214844 119.382812 162.03125 119.445312 C 161.222656 119.136719 160.539062 119.382812 159.921875 119.941406 C 159.734375 119.941406 159.546875 120.003906 159.363281 120.003906 C 158.929688 119.632812 158.679688 119.757812 158.429688 120.191406 C 158.246094 120.191406 158.058594 120.253906 157.875 120.253906 C 157.375 119.941406 156.941406 119.882812 156.632812 120.5 C 156.445312 120.5 156.261719 120.5625 156.074219 120.5625 C 155.578125 120.191406 155.144531 120.128906 154.832031 120.8125 C 154.648438 120.8125 154.460938 120.875 154.273438 120.875 C 153.714844 120.5625 153.160156 120.378906 152.785156 121.121094 C 152.476562 121.121094 152.226562 121.183594 151.917969 121.183594 C 151.359375 120.8125 150.800781 120.6875 150.429688 121.371094 C 150.117188 121.371094 149.871094 121.433594 149.558594 121.433594 C 148.816406 121.183594 148.070312 120.875 147.449219 121.679688 C 147.078125 121.679688 146.644531 121.742188 146.273438 121.742188 C 145.15625 121.371094 144.039062 121.492188 142.921875 121.617188 C 142.796875 121.617188 142.734375 121.867188 142.675781 121.929688 C 141.992188 121.929688 141.308594 121.988281 140.628906 121.988281 C 140.441406 121.929688 140.253906 121.804688 140.070312 121.804688 C 136.160156 121.804688 132.253906 121.804688 128.34375 121.804688 C 127.972656 121.804688 127.660156 121.867188 127.476562 122.238281 C 125.613281 122.238281 123.691406 122.300781 121.828125 122.300781 C 121.707031 122.238281 121.582031 122.113281 121.457031 122.113281 C 119.039062 122.113281 116.558594 122.113281 114.136719 122.113281 C 113.828125 122.113281 113.578125 122.300781 113.515625 122.609375 C 113.144531 122.609375 112.710938 122.671875 112.339844 122.671875 C 111.59375 122.363281 110.847656 122.113281 110.230469 122.921875 C 110.042969 122.921875 109.855469 122.921875 109.671875 122.984375 C 108.925781 122.671875 108.183594 122.425781 107.5625 123.230469 C 107.25 123.230469 107.003906 123.292969 106.691406 123.292969 C 106.011719 122.984375 105.390625 122.734375 104.894531 123.542969 C 104.582031 123.542969 104.335938 123.601562 104.027344 123.601562 C 102.972656 123.167969 101.855469 123.417969 100.800781 123.417969 C 100.613281 123.417969 100.550781 123.664062 100.425781 123.851562 C 99.929688 123.851562 99.433594 123.851562 98.9375 123.851562 C 98.691406 123.601562 98.378906 123.601562 98.132812 123.601562 C 95.589844 123.601562 93.105469 123.601562 90.5625 123.601562 C 90.253906 123.601562 89.941406 123.601562 89.757812 123.851562 C 88.765625 123.851562 87.773438 123.851562 86.78125 123.789062 C 86.71875 123.601562 86.59375 123.355469 86.40625 123.355469 C 84.671875 124.097656 83.304688 123.851562 81.941406 124.285156 Z M 99.1875 114.609375 C 98.628906 114.609375 97.945312 114.359375 97.636719 115.042969 C 97.386719 115.042969 97.078125 115.105469 96.828125 115.105469 C 96.765625 115.042969 96.765625 114.980469 96.703125 114.980469 C 94.222656 115.105469 91.867188 115.664062 89.445312 116.160156 C 91.679688 116.160156 93.914062 116.035156 96.085938 115.910156 C 96.332031 115.910156 96.519531 115.722656 96.765625 115.664062 C 99.0625 115.476562 101.296875 115.226562 103.589844 115.167969 C 107.933594 114.980469 112.214844 114.234375 116.558594 113.738281 C 119.660156 113.429688 122.761719 112.996094 125.863281 112.683594 C 128.46875 112.375 131.074219 112.125 133.679688 111.878906 C 136.410156 111.628906 139.136719 111.132812 141.929688 111.195312 C 145.898438 111.257812 149.871094 111.132812 153.777344 110.699219 C 157.4375 110.265625 161.160156 109.894531 164.820312 109.398438 C 165.628906 109.273438 166.558594 109.335938 167.613281 108.960938 C 166.804688 108.589844 166.246094 108.652344 165.75 108.714844 C 162.710938 108.902344 159.734375 109.148438 156.695312 109.210938 C 152.660156 109.335938 148.691406 109.644531 144.660156 109.769531 C 139.695312 109.894531 134.796875 110.328125 129.832031 110.453125 C 129.148438 110.453125 128.53125 110.574219 127.910156 110.699219 C 127.476562 110.328125 127.101562 110.328125 126.730469 110.761719 C 125.925781 110.761719 125.179688 110.699219 124.375 110.886719 C 123.9375 110.699219 123.503906 110.636719 123.132812 111.070312 C 122.511719 111.070312 121.953125 111.070312 121.394531 111.195312 C 121.023438 111.007812 120.714844 111.007812 120.464844 111.382812 C 119.90625 111.382812 119.285156 111.382812 118.726562 111.507812 C 118.355469 111.320312 118.046875 111.320312 117.796875 111.691406 C 117.488281 111.691406 117.238281 111.753906 116.929688 111.753906 C 116.496094 111.691406 116.058594 111.566406 115.6875 112.003906 C 115.316406 112.003906 114.882812 112.0625 114.507812 112.0625 C 114.136719 111.941406 113.828125 111.941406 113.578125 112.3125 C 113.269531 112.3125 113.019531 112.375 112.710938 112.375 C 112.277344 112.25 111.84375 112.1875 111.53125 112.621094 C 111.222656 112.621094 110.972656 112.683594 110.664062 112.683594 C 110.292969 112.5625 109.980469 112.5 109.734375 112.933594 C 109.421875 112.933594 109.175781 112.996094 108.863281 112.996094 C 108.429688 112.808594 108.058594 112.933594 107.808594 113.367188 C 107.5625 113.367188 107.3125 113.429688 107.003906 113.429688 C 106.570312 113.058594 106.257812 113.242188 106.011719 113.675781 C 105.761719 113.675781 105.515625 113.738281 105.203125 113.738281 C 104.769531 113.367188 104.460938 113.554688 104.210938 113.988281 C 103.964844 113.988281 103.652344 114.050781 103.40625 114.050781 C 103.03125 113.675781 102.847656 113.988281 102.722656 114.234375 C 102.351562 114.296875 101.976562 114.296875 101.667969 114.359375 C 101.296875 113.988281 101.109375 114.296875 100.984375 114.546875 C 100.738281 114.546875 100.425781 114.609375 100.179688 114.609375 C 99.992188 114.050781 99.621094 114.359375 99.1875 114.609375 Z M 287.46875 109.023438 C 293.546875 109.457031 299.625 109.832031 305.707031 109.769531 C 309.304688 109.769531 312.777344 108.902344 316.253906 108.21875 C 317.183594 108.34375 318.050781 108.15625 319.042969 107.722656 C 317.925781 107.722656 317.058594 107.597656 316.191406 107.785156 C 313.273438 107.722656 310.359375 107.722656 307.441406 107.847656 C 304.03125 107.96875 300.621094 107.90625 297.207031 107.90625 C 296.214844 107.535156 295.222656 107.535156 294.230469 107.96875 C 293.421875 108.03125 292.679688 108.03125 291.871094 108.09375 C 291.128906 108.03125 290.382812 107.785156 289.761719 108.28125 C 288.957031 108.28125 288.210938 108.34375 287.40625 108.34375 C 285.480469 108.21875 283.558594 108.402344 281.636719 108.464844 C 278.597656 108.527344 275.554688 108.839844 272.453125 108.902344 C 270.160156 108.960938 267.800781 108.902344 265.507812 108.902344 C 265.011719 108.902344 264.515625 108.777344 264.078125 109.148438 C 261.910156 109.148438 259.738281 109.148438 257.503906 109.148438 C 256.820312 108.777344 256.140625 108.714844 255.457031 109.210938 C 253.097656 109.273438 250.679688 109.398438 248.324219 109.398438 C 244.785156 109.398438 241.3125 109.519531 237.839844 110.015625 C 233.0625 110.699219 228.222656 111.195312 223.199219 112.003906 C 224.128906 112.125 224.75 112.3125 225.492188 112.3125 C 229.835938 112.5 234.179688 112.0625 238.519531 111.382812 C 242.675781 110.761719 246.832031 110.203125 251.050781 110.265625 C 255.332031 110.328125 259.550781 110.140625 263.832031 109.707031 C 265.691406 109.707031 267.492188 109.832031 269.351562 109.644531 C 271.710938 109.398438 274.066406 109.335938 276.425781 109.210938 C 279.527344 109.023438 282.691406 109.148438 285.792969 109.148438 C 286.414062 109.148438 286.910156 109.210938 287.46875 109.023438 Z M 175.242188 112.4375 C 185.851562 112.933594 196.460938 112.683594 206.945312 110.328125 C 198.878906 110.453125 190.875 110.140625 182.875 110.636719 C 180.207031 110.824219 177.664062 111.507812 175.242188 112.4375 Z M 130.019531 117.027344 C 136.84375 117.398438 143.667969 116.65625 150.429688 115.722656 C 143.605469 115.476562 136.71875 115.105469 130.019531 117.027344 Z M 100.675781 119.382812 C 100.363281 119.382812 100.117188 119.324219 99.808594 119.324219 C 93.914062 119.324219 88.019531 119.324219 82.125 119.324219 C 81.257812 119.324219 80.390625 119.324219 79.519531 119.820312 C 85.042969 119.941406 90.4375 119.882812 95.835938 119.882812 C 97.449219 119.882812 99.0625 119.507812 100.675781 119.382812 Z M 100.675781 119.382812 " fill-opacity="1" fill-rule="nonzero"/></g></svg>